<?xml version="1.0" encoding="UTF-8" standalone="no"?>
<!-- Created with Inkscape (http://www.inkscape.org/) -->

<svg
   xmlns:dc="http://purl.org/dc/elements/1.1/"
   xmlns:cc="http://creativecommons.org/ns#"
   xmlns:rdf="http://www.w3.org/1999/02/22-rdf-syntax-ns#"
   xmlns:svg="http://www.w3.org/2000/svg"
   xmlns="http://www.w3.org/2000/svg"
   xmlns:sodipodi="http://sodipodi.sourceforge.net/DTD/sodipodi-0.dtd"
   xmlns:inkscape="http://www.inkscape.org/namespaces/inkscape"
   width="209mm"
   height="297mm"
   viewBox="0 0 209 297"
   version="1.1"
   id="svg8"
   inkscape:version="0.92.5 (2060ec1f9f, 2020-04-08)"
   sodipodi:docname="Sianwa-logo.svg">
  <defs
     id="defs2" />
  <sodipodi:namedview
     id="base"
     pagecolor="#ffffff"
     bordercolor="#666666"
     borderopacity="1.0"
     inkscape:pageopacity="0.0"
     inkscape:pageshadow="2"
     inkscape:zoom="0.35355339"
     inkscape:cx="398.34902"
     inkscape:cy="395.44022"
     inkscape:document-units="px"
     inkscape:current-layer="layer1"
     showgrid="false"
     showborder="false"
     inkscape:snap-smooth-nodes="true"
     inkscape:snap-global="true"
     inkscape:snap-nodes="true"
     inkscape:snap-others="false"
     inkscape:window-width="1366"
     inkscape:window-height="705"
     inkscape:window-x="-8"
     inkscape:window-y="-8"
     inkscape:window-maximized="1" />
  <metadata
     id="metadata5">
    <rdf:RDF>
      <cc:Work
         rdf:about="">
        <dc:format>image/svg+xml</dc:format>
        <dc:type
           rdf:resource="http://purl.org/dc/dcmitype/StillImage" />
        <dc:title></dc:title>
      </cc:Work>
    </rdf:RDF>
  </metadata>
  <g
     inkscape:label="Layer 1"
     inkscape:groupmode="layer"
     id="layer1">
    <path
       style="color:#000000;font-style:normal;font-variant:normal;font-weight:normal;font-stretch:normal;font-size:medium;line-height:normal;font-family:sans-serif;font-variant-ligatures:normal;font-variant-position:normal;font-variant-caps:normal;font-variant-numeric:normal;font-variant-alternates:normal;font-feature-settings:normal;text-indent:0;text-align:start;text-decoration:none;text-decoration-line:none;text-decoration-style:solid;text-decoration-color:#000000;letter-spacing:normal;word-spacing:normal;text-transform:none;writing-mode:lr-tb;direction:ltr;text-orientation:mixed;dominant-baseline:auto;baseline-shift:baseline;text-anchor:start;white-space:normal;shape-padding:0;clip-rule:nonzero;display:inline;overflow:visible;visibility:visible;opacity:1;isolation:auto;mix-blend-mode:normal;color-interpolation:sRGB;color-interpolation-filters:linearRGB;solid-color:#000000;solid-opacity:1;vector-effect:none;fill:#0000ff;fill-opacity:0.7;fill-rule:nonzero;stroke:#000000;stroke-width:1.32291675;stroke-linecap:round;stroke-linejoin:round;stroke-miterlimit:4;stroke-dasharray:none;stroke-dashoffset:0;stroke-opacity:1;color-rendering:auto;image-rendering:auto;shape-rendering:auto;text-rendering:auto;enable-background:accumulate"
       d="m 2.0855993,191.64457 c 0.0498,-19.1085 16.4622497,-34.22131 35.8838097,-34.17074 l 113.343081,0.2951 -4.65274,17.18534 -108.735121,-0.2831 c -10.71102,-0.0279 -18.6174,7.69043 -18.64168,17.01818 -0.0243,9.32776 7.84179,17.08662 18.55281,17.11451 l 21.70402,0.0565 59.274221,0.15432 c 19.42156,0.0506 35.75515,15.24864 35.7054,34.35714 l -0.0448,17.19683 c 0.0498,-19.10851 -16.28383,-34.30606 -35.70539,-34.35662 L 59.494989,226.0577 37.790969,226.0012 C 18.369419,225.9506 2.0358293,210.7531 2.0855793,191.64458 Z m 3.25168,68.40505 113.3430907,0.2951 c 7.12638,0.0186 13.00745,-3.39381 16.15538,-8.42568 1.57029,2.53933 2.44966,5.48313 2.44153,8.60484 -0.0243,9.32775 -7.93067,17.04608 -18.64169,17.01819 L 9.9004793,277.25896 Z"
       id="rect819"
       inkscape:connector-curvature="0"
       sodipodi:nodetypes="ssccssscsscscsscscsscc" />
    <path
       style="color:#000000;font-style:normal;font-variant:normal;font-weight:normal;font-stretch:normal;font-size:medium;line-height:normal;font-family:sans-serif;font-variant-ligatures:normal;font-variant-position:normal;font-variant-caps:normal;font-variant-numeric:normal;font-variant-alternates:normal;font-feature-settings:normal;text-indent:0;text-align:start;text-decoration:none;text-decoration-line:none;text-decoration-style:solid;text-decoration-color:#000000;letter-spacing:normal;word-spacing:normal;text-transform:none;writing-mode:lr-tb;direction:ltr;text-orientation:mixed;dominant-baseline:auto;baseline-shift:baseline;text-anchor:start;white-space:normal;shape-padding:0;clip-rule:nonzero;display:inline;overflow:visible;visibility:visible;opacity:1;isolation:auto;mix-blend-mode:normal;color-interpolation:sRGB;color-interpolation-filters:linearRGB;solid-color:#000000;solid-opacity:1;vector-effect:none;fill:none;fill-opacity:0.7;fill-rule:nonzero;stroke:#000000;stroke-width:1.32291675;stroke-linecap:round;stroke-linejoin:round;stroke-miterlimit:4;stroke-dasharray:none;stroke-dashoffset:0;stroke-opacity:1;color-rendering:auto;image-rendering:auto;shape-rendering:auto;text-rendering:auto;enable-background:accumulate"
       d="m 2.0855993,191.64457 c -0.0497,19.10852 16.2838397,34.30606 35.7053897,34.35662 l 21.70402,0.0565 59.274221,0.15433 c 19.42156,0.0506 35.75514,15.24811 35.70539,34.35662 -0.0498,19.10851 -16.46225,34.22133 -35.8838,34.17076 l -113.3430907,-0.2951 4.65275,-17.18535 108.7351107,0.28311 c 10.71102,0.0279 18.61741,-7.69044 18.64169,-17.01819 0.0243,-9.32775 -7.8418,-17.08661 -18.55282,-17.1145 l -59.274221,-0.15433 -21.70403,-0.0565 C 18.324669,243.14794 1.9910793,227.94991 2.0408293,208.84141 Z m 17.1973497,0.0448 c 0.0243,-9.32775 7.93066,-17.04607 18.64168,-17.01818 l 108.735121,0.2831 4.56319,17.20934 -113.343091,-0.2951 c -7.12638,-0.0186 -13.00743,3.3938 -16.15537,8.42566 -1.57029,-2.53931 -2.44966,-5.48313 -2.44153,-8.60482 z"
       id="path1174"
       inkscape:connector-curvature="0"
       sodipodi:nodetypes="cscsssccssscsscssccscs" />
    <path
       style="opacity:1;fill:none;stroke:#000000;stroke-width:1.32291675;stroke-linecap:round;stroke-linejoin:round;stroke-miterlimit:4;stroke-dasharray:none;stroke-opacity:1"
       d="m 146.65966,174.95427 4.65275,-17.18534 4.5632,17.20933 -4.65275,17.18535 z"
       id="path1182"
       inkscape:connector-curvature="0"
       sodipodi:nodetypes="ccccc" />
    <path
       sodipodi:nodetypes="ccccc"
       inkscape:connector-curvature="0"
       id="path1193"
       d="M 9.9007293,277.25896 5.2479893,294.44431 0.68478932,277.23497 5.3375393,260.04962 Z"
       style="opacity:1;fill:none;stroke:#000000;stroke-width:1.32291663;stroke-linecap:round;stroke-linejoin:miter;stroke-miterlimit:4;stroke-dasharray:none;stroke-opacity:1" />
  </g>
</svg>
